# xmcd
#
# Track frame offsets:
#	150
#	21009
#	37450
#	63304
#	87750
#	108895
#	120523
#	146010
#	160424
#	185629
#	205723
#
# Disc length: 3079 seconds
#
# Revision: 0
# Processed by: cddbd v1.5.2PL0 Copyright (c) Steve Scherf et al.
# Submitted via: audiograbber 1.83.01
#
DISCID=960c050b
DTITLE=Rod Stewart - Rod Stewart And Faces
DYEAR=1974
DGENRE=Rock
TTITLE0=Stay With Me
TTITLE1=Miss Judy's Farm
TTITLE2=Sweet Lady Mary
TTITLE3=Memphis
TTITLE4=Jealous Guy
TTITLE5=Cindy Incidentally
TTITLE6=Three Button Hand Me Down
TTITLE7=Shake, Shudder, Shiver
TTITLE8=Maybe I'm Amazed
TTITLE9=Angel
TTITLE10=It's All Over Now
EXTD=
EXTT0=
EXTT1=
EXTT2=
EXTT3=
EXTT4=
EXTT5=
EXTT6=
EXTT7=
EXTT8=
EXTT9=
EXTT10=
PLAYORDER=
